<mxfile host="app.diagrams.net" modified="2024-03-10T12:59:58.172Z" agent="Mozilla/5.0 (Windows NT 10.0; Win64; x64) AppleWebKit/537.36 (KHTML, like Gecko) Chrome/122.0.0.0 Safari/537.36" etag="GvJVENEwu14gsE29amOp" version="24.0.4" type="device">
  <diagram id="LhVTmfn_bVOVVTIXNYQG" name="Page-1">
    <mxGraphModel dx="882" dy="578" grid="1" gridSize="10" guides="1" tooltips="1" connect="1" arrows="1" fold="1" page="1" pageScale="1" pageWidth="850" pageHeight="1100" math="0" shadow="0">
      <root>
        <mxCell id="0" />
        <mxCell id="1" parent="0" />
        <mxCell id="ZmeEktutjG4ah9AQzQX6-1" value="" style="swimlane;startSize=0;" vertex="1" parent="1">
          <mxGeometry x="200" y="80" width="480" height="240" as="geometry" />
        </mxCell>
        <mxCell id="ZmeEktutjG4ah9AQzQX6-11" style="edgeStyle=orthogonalEdgeStyle;rounded=0;orthogonalLoop=1;jettySize=auto;html=1;exitX=1;exitY=0.5;exitDx=0;exitDy=0;entryX=0;entryY=0.5;entryDx=0;entryDy=0;" edge="1" parent="ZmeEktutjG4ah9AQzQX6-1" source="ZmeEktutjG4ah9AQzQX6-4" target="ZmeEktutjG4ah9AQzQX6-5">
          <mxGeometry relative="1" as="geometry" />
        </mxCell>
        <mxCell id="ZmeEktutjG4ah9AQzQX6-4" value="Retrieval service" style="rounded=1;whiteSpace=wrap;html=1;" vertex="1" parent="ZmeEktutjG4ah9AQzQX6-1">
          <mxGeometry x="40" y="160" width="80" height="40" as="geometry" />
        </mxCell>
        <mxCell id="ZmeEktutjG4ah9AQzQX6-12" style="edgeStyle=orthogonalEdgeStyle;rounded=0;orthogonalLoop=1;jettySize=auto;html=1;exitX=1;exitY=0.5;exitDx=0;exitDy=0;entryX=0;entryY=0.5;entryDx=0;entryDy=0;" edge="1" parent="ZmeEktutjG4ah9AQzQX6-1" source="ZmeEktutjG4ah9AQzQX6-5" target="ZmeEktutjG4ah9AQzQX6-6">
          <mxGeometry relative="1" as="geometry" />
        </mxCell>
        <mxCell id="ZmeEktutjG4ah9AQzQX6-16" style="edgeStyle=orthogonalEdgeStyle;rounded=0;orthogonalLoop=1;jettySize=auto;html=1;exitX=0.5;exitY=0;exitDx=0;exitDy=0;" edge="1" parent="ZmeEktutjG4ah9AQzQX6-1" source="ZmeEktutjG4ah9AQzQX6-5" target="ZmeEktutjG4ah9AQzQX6-8">
          <mxGeometry relative="1" as="geometry" />
        </mxCell>
        <mxCell id="ZmeEktutjG4ah9AQzQX6-5" value="Ranking service" style="rounded=1;whiteSpace=wrap;html=1;" vertex="1" parent="ZmeEktutjG4ah9AQzQX6-1">
          <mxGeometry x="200" y="160" width="80" height="40" as="geometry" />
        </mxCell>
        <mxCell id="ZmeEktutjG4ah9AQzQX6-6" value="Re-ranking service" style="rounded=1;whiteSpace=wrap;html=1;" vertex="1" parent="ZmeEktutjG4ah9AQzQX6-1">
          <mxGeometry x="360" y="160" width="80" height="40" as="geometry" />
        </mxCell>
        <mxCell id="ZmeEktutjG4ah9AQzQX6-15" style="edgeStyle=orthogonalEdgeStyle;rounded=0;orthogonalLoop=1;jettySize=auto;html=1;exitX=0.5;exitY=1;exitDx=0;exitDy=0;" edge="1" parent="ZmeEktutjG4ah9AQzQX6-1" source="ZmeEktutjG4ah9AQzQX6-8" target="ZmeEktutjG4ah9AQzQX6-5">
          <mxGeometry relative="1" as="geometry" />
        </mxCell>
        <mxCell id="ZmeEktutjG4ah9AQzQX6-8" value="ML model" style="rounded=1;whiteSpace=wrap;html=1;" vertex="1" parent="ZmeEktutjG4ah9AQzQX6-1">
          <mxGeometry x="200" y="40" width="80" height="40" as="geometry" />
        </mxCell>
        <mxCell id="ZmeEktutjG4ah9AQzQX6-17" value="Prediction pipeline" style="text;html=1;align=center;verticalAlign=middle;whiteSpace=wrap;rounded=0;" vertex="1" parent="ZmeEktutjG4ah9AQzQX6-1">
          <mxGeometry width="120" height="40" as="geometry" />
        </mxCell>
        <mxCell id="ZmeEktutjG4ah9AQzQX6-10" style="edgeStyle=orthogonalEdgeStyle;rounded=0;orthogonalLoop=1;jettySize=auto;html=1;exitX=0.5;exitY=1;exitDx=0;exitDy=0;entryX=0;entryY=0.5;entryDx=0;entryDy=0;" edge="1" parent="1" source="ZmeEktutjG4ah9AQzQX6-2" target="ZmeEktutjG4ah9AQzQX6-4">
          <mxGeometry relative="1" as="geometry" />
        </mxCell>
        <mxCell id="ZmeEktutjG4ah9AQzQX6-2" value="User" style="rounded=1;whiteSpace=wrap;html=1;" vertex="1" parent="1">
          <mxGeometry x="40" y="80" width="120" height="60" as="geometry" />
        </mxCell>
        <mxCell id="ZmeEktutjG4ah9AQzQX6-3" value="Personalized feed for the user" style="rounded=1;whiteSpace=wrap;html=1;" vertex="1" parent="1">
          <mxGeometry x="720" y="80" width="120" height="60" as="geometry" />
        </mxCell>
        <mxCell id="ZmeEktutjG4ah9AQzQX6-14" style="edgeStyle=orthogonalEdgeStyle;rounded=0;orthogonalLoop=1;jettySize=auto;html=1;exitX=0.5;exitY=0;exitDx=0;exitDy=0;entryX=0;entryY=0.5;entryDx=0;entryDy=0;" edge="1" parent="1" source="ZmeEktutjG4ah9AQzQX6-6" target="ZmeEktutjG4ah9AQzQX6-3">
          <mxGeometry relative="1" as="geometry" />
        </mxCell>
        <mxCell id="ZmeEktutjG4ah9AQzQX6-18" value="" style="swimlane;startSize=0;" vertex="1" parent="1">
          <mxGeometry x="200" y="360" width="470" height="200" as="geometry" />
        </mxCell>
        <mxCell id="ZmeEktutjG4ah9AQzQX6-24" style="edgeStyle=orthogonalEdgeStyle;rounded=0;orthogonalLoop=1;jettySize=auto;html=1;exitX=1;exitY=0.5;exitDx=0;exitDy=0;entryX=0;entryY=0.5;entryDx=0;entryDy=0;" edge="1" parent="ZmeEktutjG4ah9AQzQX6-18" source="ZmeEktutjG4ah9AQzQX6-19" target="ZmeEktutjG4ah9AQzQX6-20">
          <mxGeometry relative="1" as="geometry" />
        </mxCell>
        <mxCell id="ZmeEktutjG4ah9AQzQX6-25" style="edgeStyle=orthogonalEdgeStyle;rounded=0;orthogonalLoop=1;jettySize=auto;html=1;exitX=0.5;exitY=1;exitDx=0;exitDy=0;entryX=0;entryY=0.5;entryDx=0;entryDy=0;" edge="1" parent="ZmeEktutjG4ah9AQzQX6-18" source="ZmeEktutjG4ah9AQzQX6-19" target="ZmeEktutjG4ah9AQzQX6-22">
          <mxGeometry relative="1" as="geometry" />
        </mxCell>
        <mxCell id="ZmeEktutjG4ah9AQzQX6-19" value="Data store" style="rounded=1;whiteSpace=wrap;html=1;" vertex="1" parent="ZmeEktutjG4ah9AQzQX6-18">
          <mxGeometry x="40" y="40" width="80" height="40" as="geometry" />
        </mxCell>
        <mxCell id="ZmeEktutjG4ah9AQzQX6-20" value="Online feature&amp;nbsp; computation" style="rounded=1;whiteSpace=wrap;html=1;" vertex="1" parent="ZmeEktutjG4ah9AQzQX6-18">
          <mxGeometry x="200" y="40" width="80" height="40" as="geometry" />
        </mxCell>
        <mxCell id="ZmeEktutjG4ah9AQzQX6-21" value="Feature store" style="rounded=1;whiteSpace=wrap;html=1;" vertex="1" parent="ZmeEktutjG4ah9AQzQX6-18">
          <mxGeometry x="360" y="40" width="80" height="40" as="geometry" />
        </mxCell>
        <mxCell id="ZmeEktutjG4ah9AQzQX6-28" style="edgeStyle=orthogonalEdgeStyle;rounded=0;orthogonalLoop=1;jettySize=auto;html=1;exitX=1;exitY=0.5;exitDx=0;exitDy=0;" edge="1" parent="ZmeEktutjG4ah9AQzQX6-18" source="ZmeEktutjG4ah9AQzQX6-22" target="ZmeEktutjG4ah9AQzQX6-21">
          <mxGeometry relative="1" as="geometry" />
        </mxCell>
        <mxCell id="ZmeEktutjG4ah9AQzQX6-22" value="Batch feature computation" style="rounded=1;whiteSpace=wrap;html=1;" vertex="1" parent="ZmeEktutjG4ah9AQzQX6-18">
          <mxGeometry x="200" y="120" width="80" height="40" as="geometry" />
        </mxCell>
        <mxCell id="ZmeEktutjG4ah9AQzQX6-32" value="Data prediction pipeline" style="text;html=1;align=center;verticalAlign=middle;whiteSpace=wrap;rounded=0;" vertex="1" parent="ZmeEktutjG4ah9AQzQX6-18">
          <mxGeometry width="120" height="40" as="geometry" />
        </mxCell>
        <mxCell id="ZmeEktutjG4ah9AQzQX6-31" style="edgeStyle=orthogonalEdgeStyle;rounded=0;orthogonalLoop=1;jettySize=auto;html=1;exitX=0.5;exitY=1;exitDx=0;exitDy=0;entryX=0.25;entryY=1;entryDx=0;entryDy=0;" edge="1" parent="1" source="ZmeEktutjG4ah9AQzQX6-23" target="ZmeEktutjG4ah9AQzQX6-19">
          <mxGeometry relative="1" as="geometry" />
        </mxCell>
        <mxCell id="ZmeEktutjG4ah9AQzQX6-23" value="Stream of interaction data" style="rounded=1;whiteSpace=wrap;html=1;" vertex="1" parent="1">
          <mxGeometry x="40" y="360" width="120" height="60" as="geometry" />
        </mxCell>
        <mxCell id="ZmeEktutjG4ah9AQzQX6-27" style="edgeStyle=orthogonalEdgeStyle;rounded=0;orthogonalLoop=1;jettySize=auto;html=1;exitX=0.5;exitY=0;exitDx=0;exitDy=0;" edge="1" parent="1" source="ZmeEktutjG4ah9AQzQX6-20" target="ZmeEktutjG4ah9AQzQX6-5">
          <mxGeometry relative="1" as="geometry" />
        </mxCell>
        <mxCell id="ZmeEktutjG4ah9AQzQX6-29" style="edgeStyle=orthogonalEdgeStyle;rounded=0;orthogonalLoop=1;jettySize=auto;html=1;exitX=0.5;exitY=0;exitDx=0;exitDy=0;entryX=0.75;entryY=1;entryDx=0;entryDy=0;" edge="1" parent="1" source="ZmeEktutjG4ah9AQzQX6-21" target="ZmeEktutjG4ah9AQzQX6-5">
          <mxGeometry relative="1" as="geometry" />
        </mxCell>
      </root>
    </mxGraphModel>
  </diagram>
</mxfile>
